<?xml version="1.0" encoding="UTF-8"?>
<svg id="Livello_2" data-name="Livello 2" xmlns="http://www.w3.org/2000/svg" viewBox="0 0 83.66 49.13">
  <defs>
    <style>
      .cls-1 {
        fill: #fff;
      }

      .cls-2 {
        fill: #ec651b;
      }
    </style>
  </defs>
  <g id="Livello_1-2" data-name="Livello 1">
    <g>
      <path class="cls-2" d="M83.66,24.54v24.59h-9.43v-5.31c-4.17,3.3-9.43,5.31-15.16,5.31-13.51,0-24.54-11.08-24.54-24.59S45.56,0,59.07,0s24.59,11.03,24.59,24.54ZM42.83,24.49c0,8.45,6.75,15.21,15.16,15.21s15.16-6.75,15.16-15.21-6.7-15.16-15.16-15.16-15.16,6.75-15.16,15.16Z"/>
      <path class="cls-1" d="M24.53,39.75c-8.41,0-15.15-6.77-15.15-15.21s6.74-15.15,15.15-15.15c3.39,0,6.47,1.09,9.01,2.93,1.39-2.78,3.27-5.32,5.5-7.53C34.96,1.76,29.97,0,24.53,0,11.01,0,0,11.01,0,24.53s11.01,24.59,24.53,24.59c5.44,0,10.4-1.81,14.49-4.78-2.24-2.15-4.11-4.72-5.5-7.53-2.54,1.84-5.63,2.93-8.98,2.93Z"/>
    </g>
  </g>
</svg>