<svg width="70" height="59" viewBox="0 0 70 59" fill="none" xmlns="http://www.w3.org/2000/svg">
<g clip-path="url(#clip0_18_728)">
<path d="M59.6505 17.6496C54.3378 13.7525 39.4455 1.24653 39.4455 1.24653C37.7912 -0.159129 35.3183 0.0488841 33.9211 1.70983C32.5208 3.37079 32.7278 5.85591 34.3806 7.26157L42.8891 14.4979H13.3915C11.226 14.4979 9.47129 16.2613 9.47129 18.4375C9.47129 20.6138 11.226 22.3772 13.3915 22.3772H27.1704L1.5963 42.1021C-0.120774 43.4274 -0.445371 45.8999 0.873401 47.6255C1.64491 48.6372 2.80844 49.1667 3.98608 49.1667C4.81874 49.1667 5.65767 48.902 6.37116 48.352L22.0459 36.262C22.0412 36.4448 22.0161 36.6197 22.0161 36.8025C22.0161 49.121 32.2589 58.6218 45.5376 58.6218C58.8163 58.6218 70.105 49.121 70.105 36.8025C70.105 29.1139 65.7285 22.1093 59.6505 17.6496Z" fill="url(#paint0_linear_18_728)"/>
<path d="M46.3217 49.1667C54.7656 49.1667 61.6107 42.8168 61.6107 34.984C61.6107 27.1511 54.7656 20.8013 46.3217 20.8013C37.8778 20.8013 31.0327 27.1511 31.0327 34.984C31.0327 42.8168 37.8778 49.1667 46.3217 49.1667Z" fill="white"/>
<path opacity="0.07" d="M46.3217 20.8011C54.7659 20.8011 61.6107 27.1502 61.6107 34.9838C61.6107 42.8174 54.7659 49.1665 46.3217 49.1665C37.8775 49.1665 31.0327 42.8174 31.0327 34.9838C31.0327 27.1502 37.8775 20.8011 46.3217 20.8011ZM46.3217 20.0132C37.4588 20.0132 30.2487 26.7295 30.2487 34.9838C30.2487 43.2381 37.4588 49.9544 46.3217 49.9544C55.1846 49.9544 62.3947 43.2381 62.3947 34.9838C62.3947 26.7295 55.1846 20.0132 46.3217 20.0132Z" fill="black"/>
<path opacity="0.05" d="M46.3217 20.0135C55.1846 20.0135 62.3947 26.7298 62.3947 34.9841C62.3947 43.2385 55.1846 49.9548 46.3217 49.9548C37.4588 49.9548 30.2486 43.2385 30.2486 34.9841C30.2486 26.7298 37.4588 20.0135 46.3217 20.0135ZM46.3217 19.2256C37.026 19.2256 29.4646 26.2949 29.4646 34.9841C29.4646 43.6734 37.026 50.7427 46.3217 50.7427C55.6174 50.7427 63.1788 43.6734 63.1788 34.9841C63.1788 26.2949 55.6174 19.2256 46.3217 19.2256Z" fill="black"/>
<path d="M46.3217 42.8633C51.0849 42.8633 54.9462 39.3356 54.9462 34.984C54.9462 30.6324 51.0849 27.1047 46.3217 27.1047C41.5585 27.1047 37.6971 30.6324 37.6971 34.984C37.6971 39.3356 41.5585 42.8633 46.3217 42.8633Z" fill="#0370C8"/>
<path opacity="0.05" d="M46.3217 26.3167C51.509 26.3167 55.7303 30.2044 55.7303 34.9839C55.7303 39.7635 51.509 43.6511 46.3217 43.6511C41.1344 43.6511 36.9131 39.7635 36.9131 34.9839C36.9131 30.2044 41.1344 26.3167 46.3217 26.3167ZM46.3217 25.5288C40.7016 25.5288 36.129 29.771 36.129 34.9839C36.129 40.1969 40.7016 44.4391 46.3217 44.4391C51.9418 44.4391 56.5143 40.1969 56.5143 34.9839C56.5143 29.771 51.9418 25.5288 46.3217 25.5288Z" fill="black"/>
<path opacity="0.07" d="M46.3217 27.1048C51.0856 27.1048 54.9462 30.6332 54.9462 34.9841C54.9462 39.335 51.0856 42.8634 46.3217 42.8634C41.5578 42.8634 37.6971 39.335 37.6971 34.9841C37.6971 30.6332 41.5578 27.1048 46.3217 27.1048ZM46.3217 26.3169C41.1344 26.3169 36.9131 30.2045 36.9131 34.9841C36.9131 39.7637 41.1344 43.6513 46.3217 43.6513C51.509 43.6513 55.7303 39.7637 55.7303 34.9841C55.7303 30.2045 51.509 26.3169 46.3217 26.3169Z" fill="black"/>
</g>
<defs>
<linearGradient id="paint0_linear_18_728" x1="0.0626935" y1="29.4685" x2="70.105" y2="29.4685" gradientUnits="userSpaceOnUse">
<stop stop-color="#FFA402"/>
<stop offset="1" stop-color="#FF8800"/>
</linearGradient>
<clipPath id="clip0_18_728">
<rect width="70" height="59" fill="white"/>
</clipPath>
</defs>
</svg>
