<svg width="70" height="68" viewBox="0 0 70 68" fill="none" xmlns="http://www.w3.org/2000/svg">
<g clip-path="url(#clip0_18_682)">
<path d="M12.3958 5.48433e-06H57.6042C59.2324 -0.00152451 60.845 0.317084 62.3497 0.937598C63.8543 1.55811 65.2214 2.46835 66.3728 3.61621C67.5241 4.76408 68.4371 6.12704 69.0596 7.62709C69.682 9.12714 70.0015 10.7348 70 12.3582V55.6844C70.0015 57.3077 69.682 58.9154 69.0596 60.4154C68.4371 61.9155 67.5241 63.2785 66.3728 64.4263C65.2214 65.5742 63.8543 66.4844 62.3497 67.1049C60.845 67.7254 59.2324 68.0441 57.6042 68.0425H12.3958C10.7676 68.0441 9.15497 67.7254 7.65034 67.1049C6.14572 66.4844 4.7786 65.5742 3.62724 64.4263C2.47587 63.2785 1.56286 61.9155 0.940456 60.4154C0.318051 58.9154 -0.00152916 57.3077 5.50105e-06 55.6844V12.3582C-0.00152916 10.7348 0.318051 9.12714 0.940456 7.62709C1.56286 6.12704 2.47587 4.76408 3.62724 3.61621C4.7786 2.46835 6.14572 1.55811 7.65034 0.937598C9.15497 0.317084 10.7676 -0.00152451 12.3958 5.48433e-06Z" fill="#000B1D"/>
<path d="M27.7083 55.8298C31.7354 55.8298 35 52.5751 35 48.5603V41.2908H27.7083C23.6812 41.2908 20.4166 44.5454 20.4166 48.5603C20.4166 52.5751 23.6812 55.8298 27.7083 55.8298Z" fill="#0ACF83"/>
<path d="M20.4166 34.0215C20.4166 30.0066 23.6812 26.752 27.7083 26.752H35V41.291H27.7083C23.6812 41.291 20.4166 38.0363 20.4166 34.0215Z" fill="#A259FF"/>
<path d="M20.4166 19.4821C20.4166 15.4673 23.6812 12.2126 27.7083 12.2126H35V26.7516H27.7083C23.6812 26.7516 20.4166 23.497 20.4166 19.4821Z" fill="#F24E1E"/>
<path d="M35 12.2126H42.2917C46.3187 12.2126 49.5833 15.4673 49.5833 19.4821C49.5833 23.497 46.3187 26.7516 42.2917 26.7516H35V12.2126Z" fill="#FF7262"/>
<path d="M49.5833 34.0215C49.5833 38.0363 46.3187 41.291 42.2917 41.291C38.2646 41.291 35 38.0363 35 34.0215C35 30.0066 38.2646 26.752 42.2917 26.752C46.3187 26.752 49.5833 30.0066 49.5833 34.0215Z" fill="#1ABCFE"/>
</g>
<defs>
<clipPath id="clip0_18_682">
<rect width="70" height="68" fill="white"/>
</clipPath>
</defs>
</svg>
