<svg width="70" height="68" viewBox="0 0 70 68" fill="none" xmlns="http://www.w3.org/2000/svg">
<g clip-path="url(#clip0_18_647)">
<path d="M12.3958 5.48433e-06H57.6042C59.2324 -0.00152451 60.845 0.317084 62.3497 0.937598C63.8543 1.55811 65.2214 2.46835 66.3728 3.61621C67.5241 4.76408 68.4371 6.12704 69.0596 7.62709C69.682 9.12714 70.0015 10.7348 70 12.3582V55.6844C70.0015 57.3077 69.682 58.9154 69.0596 60.4154C68.4371 61.9155 67.5241 63.2785 66.3728 64.4263C65.2214 65.5742 63.8543 66.4844 62.3497 67.1049C60.845 67.7254 59.2324 68.0441 57.6042 68.0425H12.3958C10.7676 68.0441 9.15497 67.7254 7.65034 67.1049C6.14572 66.4844 4.7786 65.5742 3.62724 64.4263C2.47587 63.2785 1.56286 61.9155 0.940456 60.4154C0.318051 58.9154 -0.00152916 57.3077 5.50105e-06 55.6844V12.3582C-0.00152916 10.7348 0.318051 9.12714 0.940456 7.62709C1.56286 6.12704 2.47587 4.76408 3.62724 3.61621C4.7786 2.46835 6.14572 1.55811 7.65034 0.937598C9.15497 0.317084 10.7676 -0.00152451 12.3958 5.48433e-06Z" fill="#330000"/>
<path d="M33.9208 40.8258H23.0708L20.8542 47.6591C20.8294 47.7836 20.7588 47.8945 20.6563 47.9698C20.5537 48.0451 20.4266 48.0795 20.3 48.0662H14.8167C14.4958 48.0662 14.4083 47.8917 14.4958 47.5428L23.8875 20.5875C23.975 20.2967 24.0625 19.9768 24.1792 19.6279C24.2965 19.0047 24.3551 18.3719 24.3542 17.7378C24.3454 17.665 24.3646 17.5916 24.4079 17.5323C24.4511 17.4729 24.5153 17.4321 24.5875 17.418H32.1417C32.375 17.418 32.4917 17.5052 32.5208 17.6506L43.1667 47.6009C43.2542 47.9208 43.1667 48.0662 42.875 48.0662H36.7792C36.6761 48.0761 36.5728 48.0494 36.4874 47.9909C36.4021 47.9324 36.3401 47.8458 36.3125 47.7463L33.9208 40.8258ZM24.7625 34.9229H32.1708C31.9958 34.3123 31.7625 33.5853 31.5 32.8293C31.2375 32.0733 30.975 31.2009 30.7125 30.3286C30.45 29.4563 30.1583 28.5548 29.8667 27.6534C29.575 26.752 29.3125 25.9087 29.0792 25.0655C28.8458 24.2222 28.6417 23.4953 28.4375 22.7974H28.3792C28.117 24.0647 27.786 25.3169 27.3875 26.5485C26.95 27.9442 26.5125 29.3981 26.0458 30.852C25.6375 32.335 25.2 33.7017 24.7625 34.9229Z" fill="#FF9A00"/>
<path d="M49.525 22.3902C49.0462 22.4007 48.5702 22.3161 48.1245 22.1414C47.6789 21.9666 47.2725 21.7053 46.9292 21.3725C46.2609 20.6441 45.905 19.6839 45.9375 18.6973C45.9203 18.2166 46.0049 17.7377 46.1858 17.2918C46.3667 16.8459 46.6399 16.443 46.9875 16.1094C47.6885 15.4488 48.6187 15.0841 49.5833 15.0917C50.7208 15.0917 51.5958 15.4406 52.2375 16.1094C52.8836 16.8145 53.2289 17.7427 53.2 18.6973C53.2178 19.1886 53.1366 19.6785 52.9613 20.138C52.7859 20.5975 52.52 21.0172 52.1792 21.3725C51.8355 21.7215 51.4207 21.993 50.9628 22.1685C50.505 22.3441 50.0147 22.4197 49.525 22.3902ZM46.2583 47.63V25.2399C46.2583 24.9491 46.375 24.8328 46.6375 24.8328H52.4125C52.675 24.8328 52.7917 24.9782 52.7917 25.2399V47.63C52.7917 47.9498 52.675 48.0952 52.4125 48.0952H46.6958C46.6345 48.1002 46.5729 48.0914 46.5155 48.0694C46.4581 48.0473 46.4064 48.0126 46.3644 47.9679C46.3223 47.9232 46.2909 47.8696 46.2726 47.811C46.2542 47.7525 46.2493 47.6906 46.2583 47.63Z" fill="#FF9A00"/>
</g>
<defs>
<clipPath id="clip0_18_647">
<rect width="70" height="68" fill="white"/>
</clipPath>
</defs>
</svg>
