<svg width="70" height="68" viewBox="0 0 70 68" fill="none" xmlns="http://www.w3.org/2000/svg">
<g clip-path="url(#clip0_18_659)">
<path d="M12.3958 5.48433e-06H57.6042C59.2324 -0.00152451 60.845 0.317084 62.3497 0.937598C63.8543 1.55811 65.2214 2.46835 66.3728 3.61621C67.5241 4.76408 68.4371 6.12704 69.0596 7.62709C69.682 9.12714 70.0015 10.7348 70 12.3582V55.6844C70.0015 57.3077 69.682 58.9154 69.0596 60.4154C68.4371 61.9155 67.5241 63.2785 66.3728 64.4263C65.2214 65.5742 63.8543 66.4844 62.3497 67.1049C60.845 67.7254 59.2324 68.0441 57.6042 68.0425H12.3958C10.7676 68.0441 9.15497 67.7254 7.65034 67.1049C6.14572 66.4844 4.7786 65.5742 3.62724 64.4263C2.47587 63.2785 1.56286 61.9155 0.940456 60.4154C0.318051 58.9154 -0.00152916 57.3077 5.50105e-06 55.6844V12.3582C-0.00152916 10.7348 0.318051 9.12714 0.940456 7.62709C1.56286 6.12704 2.47587 4.76408 3.62724 3.61621C4.7786 2.46835 6.14572 1.55811 7.65034 0.937598C9.15497 0.317084 10.7676 -0.00152451 12.3958 5.48433e-06Z" fill="#49021F"/>
<path d="M25.4334 17.7958V47.6299C25.4334 47.9497 25.2875 48.0951 25.025 48.0951H19.3084C19.0459 48.0951 18.9292 47.9497 18.9292 47.6299V17.7958C18.9292 17.5341 19.075 17.4178 19.3375 17.4178H25.025C25.0692 17.4109 25.1144 17.413 25.1578 17.424C25.2012 17.435 25.2418 17.4547 25.2773 17.482C25.3128 17.5092 25.3423 17.5433 25.3642 17.5823C25.386 17.6212 25.3996 17.6642 25.4042 17.7086C25.4152 17.7201 25.4236 17.7339 25.4286 17.749C25.4336 17.764 25.4353 17.7801 25.4334 17.7958Z" fill="#FF3366"/>
<path d="M42.2334 48.5602C40.0714 48.5955 37.9288 48.1485 35.9625 47.2517C34.1331 46.3988 32.5999 45.0221 31.5584 43.297C30.4792 41.5233 29.9542 39.3134 29.9542 36.6673C29.9246 34.5154 30.4789 32.3955 31.5584 30.5318C32.6652 28.6377 34.2683 27.0796 36.1959 26.0247C38.2375 24.8907 40.6875 24.3382 43.575 24.3382C43.7796 24.3359 43.9841 24.3456 44.1875 24.3673C44.45 24.3963 44.7417 24.3963 45.0917 24.4254V15.2368C45.0917 15.0332 45.1792 14.9169 45.3834 14.9169H51.3042C51.3696 14.9081 51.4359 14.9241 51.4899 14.9619C51.544 14.9996 51.5818 15.0562 51.5959 15.1205V42.8609C51.5959 43.3843 51.625 43.9658 51.6542 44.6056C51.6834 45.2453 51.7417 45.7978 51.7709 46.2921C51.7771 46.3903 51.7523 46.488 51.7 46.5714C51.6477 46.6549 51.5705 46.7199 51.4792 46.7573C49.9515 47.3974 48.3569 47.8656 46.725 48.1531C45.2428 48.4209 43.7397 48.5571 42.2334 48.5602ZM45.0917 42.7446V29.9502C44.832 29.8878 44.5691 29.8392 44.3042 29.8049C43.9834 29.7758 43.6625 29.7467 43.3417 29.7467C42.1984 29.7339 41.0685 29.993 40.0459 30.5027C39.0492 30.9978 38.1958 31.7385 37.5667 32.6545C36.925 33.585 36.6042 34.8354 36.6042 36.3474C36.5788 37.368 36.747 38.3841 37.1 39.3424C37.3821 40.1174 37.83 40.8219 38.4125 41.407C38.9748 41.942 39.6536 42.34 40.3959 42.5701C41.1771 42.8252 41.9946 42.9529 42.8167 42.9481C43.2542 42.9481 43.6625 42.919 44.0417 42.89C44.3981 42.9174 44.7563 42.8678 45.0917 42.7446Z" fill="#FF3366"/>
</g>
<defs>
<clipPath id="clip0_18_659">
<rect width="70" height="68" fill="white"/>
</clipPath>
</defs>
</svg>
