<svg width="70" height="68" viewBox="0 0 70 68" fill="none" xmlns="http://www.w3.org/2000/svg">
<g clip-path="url(#clip0_18_670)">
<path d="M12.3958 5.48433e-06H57.6042C59.2324 -0.00152451 60.845 0.317084 62.3497 0.937598C63.8543 1.55811 65.2214 2.46835 66.3728 3.61621C67.5241 4.76408 68.4371 6.12704 69.0596 7.62709C69.682 9.12714 70.0015 10.7348 70 12.3582V55.6844C70.0015 57.3077 69.682 58.9154 69.0596 60.4154C68.4371 61.9155 67.5241 63.2785 66.3728 64.4263C65.2214 65.5742 63.8543 66.4844 62.3497 67.1049C60.845 67.7254 59.2324 68.0441 57.6042 68.0425H12.3958C10.7676 68.0441 9.15497 67.7254 7.65034 67.1049C6.14572 66.4844 4.7786 65.5742 3.62724 64.4263C2.47587 63.2785 1.56286 61.9155 0.940456 60.4154C0.318051 58.9154 -0.00152916 57.3077 5.50105e-06 55.6844V12.3582C-0.00152916 10.7348 0.318051 9.12714 0.940456 7.62709C1.56286 6.12704 2.47587 4.76408 3.62724 3.61621C4.7786 2.46835 6.14572 1.55811 7.65034 0.937598C9.15497 0.317084 10.7676 -0.00152451 12.3958 5.48433e-06Z" fill="#001E36"/>
<path d="M15.7499 47.7169V17.7956C15.7499 17.592 15.8374 17.4757 16.0416 17.4757C16.5374 17.4757 17.0041 17.4757 17.6749 17.4467C18.3458 17.4176 19.1041 17.4176 19.8916 17.3885C20.6791 17.3594 21.5249 17.3594 22.4291 17.3303C23.3333 17.3013 24.2083 17.3013 25.0833 17.3013C27.4749 17.3013 29.4583 17.592 31.0916 18.2027C32.5558 18.6984 33.8908 19.5129 34.9999 20.5871C35.9398 21.5271 36.6659 22.6576 37.1291 23.902C37.5706 25.1138 37.7976 26.3928 37.7999 27.6821C37.7999 30.1828 37.2166 32.2474 36.0499 33.8757C34.8779 35.5019 33.2414 36.7381 31.3541 37.4232C29.3708 38.1502 27.1833 38.4119 24.7916 38.4119C24.0916 38.4119 23.6249 38.4119 23.3333 38.3828C23.0416 38.3537 22.6333 38.3537 22.0791 38.3537V47.6878C22.0856 47.7356 22.0824 47.7843 22.0697 47.8309C22.057 47.8775 22.035 47.9211 22.0051 47.959C21.9752 47.997 21.9379 48.0286 21.8955 48.0519C21.8531 48.0753 21.8064 48.0899 21.7583 48.0949H16.0999C15.8666 48.0949 15.7499 47.9786 15.7499 47.7169ZM22.1083 23.0878V32.858C22.5166 32.8871 22.8958 32.9162 23.2458 32.9162H24.7916C25.9302 32.9175 27.062 32.7409 28.1458 32.3928C29.0756 32.1202 29.9063 31.5849 30.5374 30.8516C31.1499 30.1247 31.4416 29.136 31.4416 27.8566C31.4691 26.9479 31.2364 26.0503 30.7708 25.2686C30.2844 24.5137 29.5692 23.933 28.7291 23.6112C27.6341 23.1836 26.4626 22.9857 25.2874 23.0296C24.5291 23.0296 23.8583 23.0296 23.3041 23.0587C22.9054 23.0327 22.5052 23.0425 22.1083 23.0878Z" fill="#31A8FF"/>
<path d="M55.9999 31.0841C55.1193 30.6217 54.1762 30.2887 53.1999 30.0954C52.1277 29.8533 51.0326 29.7266 49.9333 29.7174C49.343 29.6971 48.753 29.7657 48.1833 29.921C47.82 29.9963 47.4977 30.2036 47.2791 30.5025C47.1317 30.7385 47.0511 31.0097 47.0458 31.2876C47.0593 31.5643 47.1616 31.8293 47.3374 32.0437C47.6139 32.3669 47.9507 32.6335 48.3291 32.8288C48.9999 33.1777 49.6999 33.4976 50.3999 33.7883C51.9757 34.3172 53.4834 35.0297 54.8916 35.911C55.8494 36.5115 56.6415 37.3411 57.1958 38.3245C57.6645 39.2522 57.895 40.2812 57.8666 41.3195C57.8903 42.6939 57.4935 44.0429 56.7291 45.1869C55.9156 46.3477 54.7804 47.247 53.4624 47.7749C52.0333 48.3855 50.2833 48.7054 48.1833 48.7054C46.8518 48.7107 45.523 48.5841 44.2166 48.3273C43.1879 48.1501 42.1875 47.8372 41.2416 47.3968C41.1399 47.346 41.0554 47.2666 40.9984 47.1684C40.9414 47.0702 40.9144 46.9576 40.9208 46.8444V41.7848C40.9183 41.7351 40.9275 41.6855 40.9478 41.64C40.968 41.5946 40.9988 41.5545 41.0374 41.5231C41.0785 41.4992 41.1262 41.4892 41.1735 41.4944C41.2208 41.4996 41.2651 41.5199 41.2999 41.5522C42.4235 42.2125 43.6438 42.6933 44.9166 42.977C46.0404 43.2685 47.1971 43.4151 48.3583 43.4132C49.4666 43.4132 50.2541 43.2678 50.7791 43.0061C51.0133 42.8982 51.2117 42.7261 51.3512 42.5097C51.4907 42.2934 51.5654 42.0419 51.5666 41.7848C51.5666 41.3777 51.3333 40.9997 50.8666 40.6217C50.3999 40.2437 49.4374 39.8075 48.0083 39.255C46.5422 38.74 45.1498 38.0361 43.8666 37.1614C42.9527 36.512 42.1954 35.6676 41.6499 34.6898C41.1845 33.7714 40.954 32.7525 40.9791 31.7238C40.9834 30.483 41.3262 29.2668 41.9708 28.2054C42.7117 27.038 43.7752 26.1091 45.0333 25.5302C46.4041 24.8323 48.1249 24.5125 50.1958 24.5125C51.4061 24.5128 52.6148 24.6003 53.8124 24.7742C54.6736 24.8903 55.5164 25.1151 56.3208 25.4429C56.4489 25.4882 56.5538 25.5823 56.6124 25.7046C56.6461 25.8182 56.6657 25.9353 56.6708 26.0536V30.7933C56.6712 30.8498 56.6583 30.9056 56.6329 30.9562C56.6076 31.0067 56.5706 31.0505 56.5249 31.0841C56.3553 31.1449 56.1696 31.1449 55.9999 31.0841Z" fill="#31A8FF"/>
</g>
<defs>
<clipPath id="clip0_18_670">
<rect width="70" height="68" fill="white"/>
</clipPath>
</defs>
</svg>
