<svg width="70" height="68" viewBox="0 0 70 68" fill="none" xmlns="http://www.w3.org/2000/svg">
<g clip-path="url(#clip0_18_706)">
<path d="M12.3958 -0.0427191H57.6042C59.2324 -0.0442491 60.845 0.27436 62.3497 0.894873C63.8543 1.51539 65.2214 2.42562 66.3728 3.57349C67.5241 4.72135 68.4371 6.08431 69.0596 7.58436C69.682 9.08441 70.0015 10.6921 70 12.3154V55.6417C70.0015 57.265 69.682 58.8727 69.0596 60.3727C68.4371 61.8728 67.5241 63.2357 66.3728 64.3836C65.2214 65.5315 63.8543 66.4417 62.3497 67.0622C60.845 67.6827 59.2324 68.0013 57.6042 67.9998H12.3958C10.7676 68.0013 9.15497 67.6827 7.65034 67.0622C6.14572 66.4417 4.7786 65.5315 3.62724 64.3836C2.47587 63.2357 1.56286 61.8728 0.940456 60.3727C0.318051 58.8727 -0.00152916 57.265 5.50105e-06 55.6417V12.3154C-0.00152916 10.6921 0.318051 9.08441 0.940456 7.58436C1.56286 6.08431 2.47587 4.72135 3.62724 3.57349C4.7786 2.42562 6.14572 1.51539 7.65034 0.894873C9.15497 0.27436 10.7676 -0.0442491 12.3958 -0.0427191Z" fill="#00005B"/>
<path d="M16.625 47.6741V17.7529C16.625 17.5493 16.7125 17.433 16.9167 17.433C17.4125 17.433 17.8792 17.433 18.55 17.4039C19.2208 17.3749 19.9792 17.3749 20.7667 17.3458C21.5542 17.3167 22.4 17.3167 23.3042 17.2876C24.2083 17.2585 25.0833 17.2585 25.9583 17.2585C28.35 17.2585 30.3333 17.5493 31.9667 18.16C33.4308 18.6557 34.7659 19.4702 35.875 20.5444C36.8148 21.4844 37.541 22.6149 38.0042 23.8593C38.4457 25.0711 38.6727 26.3501 38.675 27.6394C38.675 30.1401 38.0917 32.2046 36.925 33.833C35.7529 35.4591 34.1165 36.6954 32.2292 37.3805C30.2458 38.1075 28.0583 38.3692 25.6667 38.3692C24.9667 38.3692 24.5 38.3692 24.2083 38.3401C23.9167 38.311 23.5083 38.311 22.9542 38.311V47.6451C22.9607 47.6929 22.9575 47.7416 22.9448 47.7882C22.9321 47.8348 22.9101 47.8783 22.8802 47.9163C22.8502 47.9543 22.813 47.9859 22.7706 48.0092C22.7282 48.0325 22.6815 48.0471 22.6333 48.0521H16.975C16.7417 48.0521 16.625 47.9358 16.625 47.6741ZM22.9833 23.0451V32.8153C23.3917 32.8444 23.7708 32.8734 24.1208 32.8734H25.6667C26.8053 32.8748 27.9371 32.6982 29.0208 32.35C29.9506 32.0774 30.7813 31.5421 31.4125 30.8089C32.025 30.0819 32.3167 29.0933 32.3167 27.8139C32.3441 26.9052 32.1114 26.0075 31.6458 25.2259C31.1595 24.4709 30.4443 23.8903 29.6042 23.5685C28.5092 23.1409 27.3376 22.943 26.1625 22.9869C25.4042 22.9869 24.7333 22.9869 24.1792 23.016C23.7805 22.99 23.3803 22.9997 22.9833 23.0451Z" fill="#9999FF"/>
<path d="M42.7583 24.7315H47.8625C48.0007 24.7348 48.1344 24.7816 48.2444 24.8651C48.3544 24.9487 48.4351 25.0647 48.475 25.1967C48.564 25.4307 48.6228 25.675 48.65 25.9237C48.7083 26.2145 48.7667 26.5343 48.7958 26.8251C48.825 27.1159 48.8542 27.4939 48.8542 27.8719C49.7299 26.8526 50.7882 26.0046 51.975 25.3712C53.3308 24.6204 54.8574 24.2299 56.4083 24.2372C56.4563 24.2307 56.5051 24.2339 56.5519 24.2465C56.5986 24.2592 56.6423 24.2811 56.6804 24.3109C56.7185 24.3408 56.7502 24.3779 56.7736 24.4202C56.797 24.4625 56.8116 24.509 56.8167 24.557V30.3435C56.8167 30.5762 56.6708 30.6634 56.35 30.6634C55.2919 30.6289 54.2337 30.7266 53.2 30.9542C52.3575 31.1276 51.5361 31.3908 50.75 31.7393C50.1857 31.993 49.6795 32.3591 49.2625 32.8152V47.645C49.2625 47.9357 49.1458 48.052 48.8833 48.052H43.1375C43.0837 48.0611 43.0286 48.0591 42.9756 48.0463C42.9226 48.0335 42.8727 48.01 42.8291 47.9774C42.7854 47.9447 42.7489 47.9036 42.7217 47.8564C42.6945 47.8093 42.6772 47.7571 42.6708 47.7031V31.4776C42.6708 30.7797 42.6708 30.0528 42.6417 29.2967C42.6125 28.5407 42.6125 27.7847 42.5833 27.0286C42.5833 26.3599 42.525 25.7201 42.4667 25.0513C42.4589 25.017 42.4581 24.9814 42.4641 24.9467C42.4702 24.912 42.4831 24.8789 42.5021 24.8491C42.5211 24.8194 42.5457 24.7937 42.5747 24.7735C42.6036 24.7533 42.6363 24.7391 42.6708 24.7315C42.6708 24.7024 42.7292 24.7024 42.7583 24.7315Z" fill="#9999FF"/>
</g>
<defs>
<clipPath id="clip0_18_706">
<rect width="70" height="68" fill="white"/>
</clipPath>
</defs>
</svg>
